# xmcd CD database file
#
# Track frame offsets:
#	150
#	26580
#	52696
#	67796
#	92095
#	110431
#	136114
#	157886
#	174204
#	194439
#
# Disc length: 2955 seconds
#
# Revision: 0
# Processed by: cddbd v1.4PL0 Copyright (c) Steve Scherf et al.
# Submitted via: CDex 1.40Release
#
DISCID=6e0b890a
DTITLE=Serious Trouble - Uner You
DYEAR=1900
DGENRE=Blues
TTITLE0=Tell Me
TTITLE1=Who Says You Can't Go
TTITLE2=Under You
TTITLE3=Midnight Ride
TTITLE4=Who's Left Standing
TTITLE5=How Many More Times
TTITLE6=Understand
TTITLE7=Big Trouble
TTITLE8=Lovers Cross
TTITLE9=Blow My Blues Away
EXTD=ID3G: 0
EXTT0=
EXTT1=
EXTT2=
EXTT3=
EXTT4=
EXTT5=
EXTT6=
EXTT7=
EXTT8=
EXTT9=
PLAYORDER=
